<!DOCTYPE svg PUBLIC "-//W3C//DTD SVG 1.1//EN" "http://www.w3.org/Graphics/SVG/1.1/DTD/svg11.dtd">

<!-- Uploaded to: SVG Repo, www.svgrepo.com, Transformed by: SVG Repo Mixer Tools -->
<svg width="64px" height="64px" viewBox="0 0 64 64" xmlns="http://www.w3.org/2000/svg" xmlns:xlink="http://www.w3.org/1999/xlink" aria-hidden="true" role="img" class="iconify iconify--emojione-monotone" preserveAspectRatio="xMidYMid meet" fill="#000000">

<g id="SVGRepo_bgCarrier" stroke-width="0"/>

<g id="SVGRepo_tracerCarrier" stroke-linecap="round" stroke-linejoin="round"/>

<g id="SVGRepo_iconCarrier" fill="white" >

<path d="M8.208 23.452l6.751-10.126l-.68-.452l-.678-.453L6.85 22.547l.68.452z" fill="#000000"/>

<path d="M10.062 24.687l.677.453l6.749-10.126l-.677-.453l-.68-.452l-6.749 10.126z" fill="#000000"/>

<path d="M12.591 26.374l.68.453l6.75-10.125l-.679-.452l-.678-.454l-6.751 10.126z" fill="#000000"/>

<path d="M48.258 42.349l.678.452l3.149-4.723l-.678-.452l-.679-.453l-3.148 4.723z" fill="#000000"/>

<path d="M55.79 40.549l-3.147 4.722l.677.454l.68.452l3.148-4.724l-.678-.452z" fill="#000000"/>

<path d="M51.467 44.488l3.15-4.722l-.68-.453l-.678-.452l-3.148 4.723l.678.452z" fill="#000000"/>

<path d="M47.807 43.027l-.68-.452l-3.148 4.724l.677.451l.68.453l3.148-4.723z" fill="#000000"/>

<path d="M50.338 44.715l-.68-.453l-3.148 4.724l.678.453l.68.452l3.148-4.723z" fill="#000000"/>

<path d="M52.189 45.95l-3.148 4.724l.678.453l.678.451l3.15-4.723l-.68-.453z" fill="#000000"/>

<path d="M7.53 41.001l-.68.452l6.751 10.125l.678-.451l.68-.453l-6.751-10.125z" fill="#000000"/>

<path d="M13.66 44.715l-.678.453l3.149 4.723l.68-.452l.677-.453l-3.148-4.724z" fill="#000000"/>

<path d="M12.591 37.626l-.678.452l6.751 10.125l.678-.453l.679-.451l-6.75-10.126z" fill="#000000"/>

<path d="M9.382 39.766l3.149 4.722l.678-.452l.68-.452l-3.15-4.723l-.677.452z" fill="#000000"/>

<path d="M52.867 17.598l.68-.453l-3.15-4.724l-.678.453l-.678.452l3.15 4.724z" fill="#000000"/>

<path d="M47.807 20.973l.677-.453l-3.148-4.724l-.68.454l-.677.452l3.148 4.723z" fill="#000000"/>

<path d="M52.643 18.729l3.147 4.723l.68-.453l.678-.452L54 17.824l-.68.452z" fill="#000000"/>

<path d="M53.937 24.687l.68-.452l-6.749-10.126l-.68.452l-.678.453l6.749 10.126z" fill="#000000"/>

<path d="M51.407 26.374l.678-.452l-3.149-4.724l-.678.453l-.678.453l3.148 4.723z" fill="#000000"/>

<path d="M32 2C15.432 2 2 15.432 2 32s13.432 30 30 30s30-13.432 30-30S48.568 2 32 2zm0 58C16.561 60 4 47.439 4 32S16.561 4 32 4s28 12.561 28 28s-12.561 28-28 28z" fill="#000000"/>

<path d="M32 18.841c-7.256 0-13.158 5.903-13.158 13.159c0 7.256 5.902 13.159 13.158 13.159S45.158 39.256 45.158 32c0-7.256-5.902-13.159-13.158-13.159m8.438 11.472A6.084 6.084 0 0 0 32 32a6.087 6.087 0 0 1-8.439 1.688a6.058 6.058 0 0 1-2.536-3.644c.929-5.222 5.491-9.203 10.976-9.203c6.152 0 11.158 5.006 11.158 11.159c0 .67-.069 1.323-.184 1.961a6.052 6.052 0 0 0-2.537-3.648" fill="#000000"/>

</g>

</svg>