<!DOCTYPE svg PUBLIC "-//W3C//DTD SVG 1.1//EN" "http://www.w3.org/Graphics/SVG/1.1/DTD/svg11.dtd">
<!-- Uploaded to: SVG Repo, www.svgrepo.com, Transformed by: SVG Repo Mixer Tools -->
<svg height="64px" width="64px" version="1.1" id="Capa_1" xmlns="http://www.w3.org/2000/svg" xmlns:xlink="http://www.w3.org/1999/xlink" viewBox="0 0 320.171 320.171" xml:space="preserve">
<g id="SVGRepo_bgCarrier" stroke-width="0"/>
<g id="SVGRepo_tracerCarrier" stroke-linecap="round" stroke-linejoin="round"/>
<g id="SVGRepo_iconCarrier"> <g> <path style="fill:#010002;" d="M271.768,62.158C237.42,29.165,177.857,44.781,136.64,51.781 C94.405,56.806,34.276,62.817,13.962,106.427c-16.573,35.571-16.763,84.681-9.013,122.254c3.209,15.539,11.4,33.717,25.351,42.485 c23.007,14.452,41.582,5.14,59.15-12.749c8.822-8.985,16.116-19.33,24.911-28.332c8.512-8.719,24.568-6.152,35.62-7.734 c14.685-2.105,29.197-5.205,43.964-6.804c18.047-1.953,25.917,6.092,36.812,18.895c16.926,19.891,60.2,41.326,79.557,12.76 c17.644-26.031,7.468-66.563,1.148-94.645C304.418,121.303,295.547,84.992,271.768,62.158z M289.515,229.007 c-7.321,23.584-58.595-36.192-68.549-38.715c-14.985-3.791-29.741-1.817-44.829,0.315c-19.635,2.779-39.809,4.623-59.242,8.333 c-26.233,5.009-59.014,74.336-79.856,39.401c-16.905-28.359-9.959-74.678-3.198-105.017c10.242-45.96,66.329-49.952,105.463-54.668 c0.549-0.065,1.028-0.228,1.545-0.337c0.68-0.027,1.354-0.022,2.072-0.141c34.337-5.765,84.871-20.554,113.502,6.946 c16.801,16.138,22.322,48.342,27.712,70.039C289.815,178.005,296.706,205.81,289.515,229.007z"/> <path style="fill:#010002;" d="M74.651,120.117c-1.343-0.038-2.458,0.283-3.389,0.794c-14.142,4.329-23.105,18.21-20.75,33.059 c2.475,15.648,17.965,25.602,33.309,21.794c12.999-3.225,20.146-17.971,19.722-30.388 C102.988,129.331,89.565,120.52,74.651,120.117z M82.102,161.862c-7.011,4.253-15.8-1.61-17.905-8.501 c-2.681-8.8,3.182-17.073,11.362-19.575c7.256,0.424,13.657,3.563,14.386,11.596C90.516,151.723,87.612,158.522,82.102,161.862z"/> <path style="fill:#010002;" d="M227.108,98.644c-1.343-0.038-2.458,0.283-3.389,0.794c-14.142,4.324-23.105,18.21-20.75,33.059 c2.475,15.648,17.965,25.602,33.309,21.794c12.999-3.225,20.146-17.971,19.722-30.388 C255.445,107.857,242.021,99.046,227.108,98.644z M234.559,140.388c-7.011,4.253-15.8-1.61-17.905-8.501 c-2.681-8.8,3.182-17.073,11.362-19.575c7.256,0.424,13.657,3.563,14.386,11.596C242.973,130.25,240.063,137.043,234.559,140.388z"/> </g> </g>
</svg>